inDegrees=yes
name=ik_Shooting_orientation_zug
DataType=double
version=3
OpenSimVersion=4.3-2021-08-27-4bc7ad9
endheader
time	pelvis_tilt	pelvis_list	pelvis_rotation	pelvis_tx	pelvis_ty	pelvis_tz	hip_flexion_r	hip_adduction_r	hip_rotation_r	knee_angle_r	knee_angle_r_beta	ankle_angle_r	subtalar_angle_r	mtp_angle_r	hip_flexion_l	hip_adduction_l	hip_rotation_l	knee_angle_l	knee_angle_l_beta	ankle_angle_l	subtalar_angle_l	mtp_angle_l	lumbar_extension	lumbar_bending	lumbar_rotation	arm_flex_r	arm_add_r	arm_rot_r	elbow_flex_r	pro_sup_r	wrist_flex_r	wrist_dev_r	arm_flex_l	arm_add_l	arm_rot_l	elbow_flex_l	pro_sup_l	wrist_flex_l	wrist_dev_l
5	-0.1068206660307569	-0.8402842241934515	147.5579103440975	0	0.9399999999999999	0	1.691783275111331	-0.8510306418843585	0	7.845217446182754	0.1369248749707901	-0.5191288815519614	0	0	1.691783275111331	-0.8510306418843585	0	7.845217446182754	0.1369248749707901	-0.5191288815519614	0	0	2.196775163860297	-0.04708077106636046	-3.680633138339711	14.13889349554504	24.72980112412942	34.84569834236887	0.004344880126830231	10.079586698715	0	0	0	-0.2181406884813725	0	10.31912934121324	10.079586698715	0	0
5.01	-0.09379737915543342	-0.8368837358106388	147.5622275765332	0	0.9399999999999999	0	1.703538816350131	-0.8571482010640532	0	7.875116924610019	0.1374467193139749	-0.5228945366132925	0	0	1.703538816350131	-0.8571482010640532	0	7.875116924610019	0.1374467193139749	-0.5228945366132925	0	0	2.214920920798373	-0.02141602904002243	-3.678538674709767	14.15164405851837	25.27801790617326	34.68189734593588	0.004299559099303111	10.12306666381049	0	0	0	-0.2195481876272173	0	10.36417807897964	10.12306666381049	0	0
5.02	-0.1337573157014586	-0.8468475698100099	147.5619535485466	0	0.9399999999999999	0	1.731766192867903	-0.8718663493154558	0	7.946763915941715	0.1386971952118608	-0.5319590276909799	0	0	1.731766192867903	-0.8718663493154558	0	7.946763915941715	0.1386971952118608	-0.5319590276909799	0	0	2.173408196134031	-0.06424601912940706	-3.649318411320905	15.38176030149069	24.83685585040883	34.38829987162307	0.004187489752893249	10.22742234272568	0	0	0	-0.222907523704595	0	10.47230684965973	10.22742234272568	0	0
5.03	-0.1253736211456413	-0.8508226093914477	147.5637018679668	0	0.9399999999999999	0	35.58933447580306	-11.15846609079954	0	53.11525749112791	0.9270361262647648	-5.685082667736002	0	0	35.58933447580306	-11.15846609079954	0	53.11525749112791	0.9270361262647648	-5.685082667736002	0	0	2.199346117013658	-0.05540555254500714	-3.651913645563966	17.0265361832614	24.95297751795618	35.42619854013258	0.003957085634095914	50.61470062813924	0	0	0	-7.14733396087628	0	68.72870254535438	50.61470062813924	0	0
5.04	-0.09770511147173333	-0.8669713984277386	147.5857541162072	0	0.9399999999999999	0	35.59165616806354	-11.15748382962047	0	53.11658921341031	0.9270593692033149	-5.684325494979975	0	0	35.59165616806354	-11.15748382962047	0	53.11658921341031	0.9270593692033149	-5.684325494979975	0	0	2.21487918390893	-0.05336384081970692	-3.689087586529395	17.2549737706997	25.47092986318873	35.0573329263359	0.003909884415148112	50.6108781420437	0	0	0	-7.148316776825516	0	68.73023630676136	50.6108781420437	0	0
5.05	-0.1052571564402503	-0.8768629593506935	147.5925127098116	0	0.9399999999999999	0	35.59423612377503	-11.15638972006263	0	53.11806535651888	0.92708513276079	-5.683481859663949	0	0	35.59423612377503	-11.15638972006263	0	53.11806535651888	0.92708513276079	-5.683481859663949	0	0	2.23631580207083	-0.05433806916359833	-3.697176788347886	17.70374958648665	25.17364430864108	34.26667087962977	0.003894042906692636	50.60662168346958	0	0	0	-7.149407013900945	0	68.73194061444042	50.60662168346958	0	0
5.06	-0.1011401482444935	-0.8799322171914027	147.5874912599077	0	0.9399999999999999	0	35.59710366511061	-11.15517665594354	0	53.11970875173955	0.9271138154183023	-5.682547081864536	0	0	35.59710366511061	-11.15517665594354	0	53.11970875173955	0.9271138154183023	-5.682547081864536	0	0	2.238241167168936	-0.05948984774059604	-3.650170146732897	18.08373644042419	25.02084694359728	33.8556531059288	0.003873540726084803	50.60190038813712	0	0	0	-7.150620362316303	0	68.73383496874985	50.60190038813712	0	0
5.07	-0.1126282269704254	-0.8825041230280539	147.6063866471163	0	0.9399999999999999	0	35.59989061662581	-11.15399884519741	0	53.12130637909086	0.9271416992758026	-5.681639806750693	0	0	35.59989061662581	-11.15399884519741	0	53.12130637909086	0.9271416992758026	-5.681639806750693	0	0	2.229102895231708	-0.06812951722258079	-3.661678414235154	18.68912161583904	24.8116855903089	33.8456401979236	0.003821962077624853	50.59731527392309	0	0	0	-7.151799963419855	0	68.73567610532139	50.59731527392309	0	0
5.08	-0.120481604760652	-0.8961877110175459	147.600973658016	0	0.9399999999999999	0	35.60128108891283	-11.15341527734121	0	53.12210789130973	0.9271556883030169	-5.681190927570628	0	0	35.60128108891283	-11.15341527734121	0	53.12210789130973	0.9271556883030169	-5.681190927570628	0	0	2.240165577779182	-0.07850420123952646	-3.634793253615424	18.69941779518428	24.7426305673136	33.94608528521363	0.003819870776021198	50.59504095252299	0	0	0	-7.152390923678311	0	68.73659478670103	50.59504095252299	0	0
5.09	-0.1259344327580339	-0.9097729826295549	147.6207322710973	0	0.9399999999999999	0	35.60337625653609	-11.15252949294764	0	53.123307642262	0.9271766279073378	-5.68050871962643	0	0	35.60337625653609	-11.15252949294764	0	53.123307642262	0.9271766279073378	-5.68050871962643	0	0	2.253192682122586	-0.1024386553420184	-3.639622198531927	19.63902117699827	24.15426115776787	34.70224401404101	0.003740154505995339	50.59159254079999	0	0	0	-7.153277138971473	0	68.73797889681269	50.59159254079999	0	0
5.1	-0.1149674918707266	-0.907121436978032	147.6266032694008	0	0.9399999999999999	0	35.60665019070588	-11.15114991971043	0	53.12518688305976	0.9272094268466966	-5.679447021378354	0	0	35.60665019070588	-11.15114991971043	0	53.12518688305976	0.9272094268466966	-5.679447021378354	0	0	2.247165903449496	-0.08131815940309499	-3.627416028949441	19.97670860290019	24.01896170066358	34.72128675306713	0.003714153310598202	50.58621877472689	0	0	0	-7.154664514587518	0	68.74014183142825	50.58621877472689	0	0
5.11	-0.1030924374940793	-0.9190654585387422	147.6441180949678	0	0.9399999999999999	0	35.6092781011588	-11.15004092105734	0	53.12669243288438	0.927235703648189	-5.678593484875066	0	0	35.6092781011588	-11.15004092105734	0	53.12669243288438	0.927235703648189	-5.678593484875066	0	0	2.261167740792157	-0.08346231381858053	-3.641325907917845	20.19722606957809	23.70092323928874	34.80845651847758	0.003714061046351735	50.5818996059899	0	0	0	-7.155776704116042	0	68.74187792090532	50.5818996059899	0	0
5.12	-0.1003088967924463	-0.9327734766356315	147.6357657968111	0	0.9399999999999999	0	35.61046380454283	-11.14954539006112	0	53.12737707149424	0.9272476528461173	-5.678212858110764	0	0	35.61046380454283	-11.14954539006112	0	53.12737707149424	0.9272476528461173	-5.678212858110764	0	0	2.289767886142147	-0.08368189368786152	-3.61044725415844	20.38470874826829	23.61846493782098	35.11371654787418	0.003695812466929254	50.57996667142746	0	0	0	-7.156281441085476	0	68.74266135382568	50.57996667142746	0	0
5.13	-0.1055281223188114	-0.9248396051735535	147.6644654340563	0	0.9399999999999999	0	35.73138607275633	-11.1027056727046	0	53.19990809116472	0.9285135579491961	-5.643285447809543	0	0	35.73138607275633	-11.1027056727046	0	53.19990809116472	0.9285135579491961	-5.643285447809543	0	0	2.262536961241707	-0.07561683428806203	-3.634131925748223	19.3605736054088	22.25884911790384	36.46607242823112	0.003870400511197758	50.39385654469993	0	0	0	-7.208824400879562	0	68.8226090060105	50.39385654469993	0	0
5.14	-0.1160583726323324	-0.9263617597463151	147.6529937500958	0	0.9399999999999999	0	35.84153252219549	-11.06988881596246	0	53.27955501413217	0.9299036589940604	-5.620001203607441	0	0	35.84153252219549	-11.06988881596246	0	53.27955501413217	0.9299036589940604	-5.620001203607441	0	0	2.259935392859722	-0.08222062213211181	-3.603796375287032	8.557977771000839	7.649768515850387	43.73152783796826	0.008428493563360739	50.2579554855071	0	0	0	-7.264164189462814	0	68.89571685300415	50.2579554855071	0	0
5.15	-0.1191118491390624	-0.94191048587829	147.6548826250637	0	0.9399999999999999	0	35.89018262587861	-11.05594811733368	0	53.31473407001779	0.9305176493470075	-5.610245072268408	0	0	35.89018262587861	-11.05594811733368	0	53.31473407001779	0.9305176493470075	-5.610245072268408	0	0	2.259757738270557	-0.1053078779570473	-3.605450160235137	5.466061187493183	-2.631671991271603	47.86974608129896	0.02286371527975107	50.19966951816932	0	0	0	-7.288848841309285	0	68.92801648592956	50.19966951816932	0	0
